<svg xmlns="http://www.w3.org/2000/svg" viewBox="0 0 112.44 112.44"><defs><style>.cls-1{fill:#fff;}.cls-2{fill:#2c378f;}</style></defs><g id="grid"><rect class="cls-1" x="1.67" y="2.32" width="107.77" height="107.77"/></g><g id="icons"><path class="cls-2" d="M86.43,60.69h4.49a3.37,3.37,0,1,0,0-6.73H86.43a3.37,3.37,0,0,1,0-6.74h4.49a3.37,3.37,0,1,0,0-6.73H86.43V36a9,9,0,0,0-9-9H74.08V20.84a3.37,3.37,0,0,0-6.74,0V27a3.37,3.37,0,0,1-6.73,0V20.84a3.37,3.37,0,1,0-6.74,0V27a3.37,3.37,0,0,1-6.74,0V20.84a3.37,3.37,0,1,0-6.73,0V27H37a9,9,0,0,0-9,9v4.49H22.44a3.37,3.37,0,1,0,0,6.73h5.61a3.37,3.37,0,0,1,0,6.74H22.44a3.37,3.37,0,1,0,0,6.73h5.61a3.37,3.37,0,0,1,0,6.74H22.44a3.37,3.37,0,0,0,0,6.74h5.62v4.49a9,9,0,0,0,9,9H40.4v6.17a3.37,3.37,0,1,0,6.73,0V87.64a3.37,3.37,0,0,1,6.74,0v6.17a3.37,3.37,0,1,0,6.74,0V87.64a3.37,3.37,0,1,1,6.73,0v6.17a3.37,3.37,0,0,0,6.74,0V87.64h3.37a9,9,0,0,0,9-9V74.17h4.49a3.37,3.37,0,1,0,0-6.74H86.43a3.37,3.37,0,0,1,0-6.74Zm-14,6.74a5,5,0,0,1-5,5H47.13a5.06,5.06,0,0,1-5.05-5V47.22a5.06,5.06,0,0,1,5.05-5H67.34a5.06,5.06,0,0,1,5,5Z"/><rect class="cls-2" x="48.82" y="48.91" width="16.84" height="16.84"/></g></svg>