<svg xmlns="http://www.w3.org/2000/svg" viewBox="0 0 112.44 112.44"><defs><style>.cls-1{fill:#fff;}.cls-2{fill:#2c378f;}</style></defs><g id="grid"><rect class="cls-1" x="3.14" y="3.28" width="103.6" height="103.6"/></g><g id="icons"><path class="cls-2" d="M88.38,24.56A30.21,30.21,0,0,0,41.87,62.67l-5.95,6-1.39-1.4a1.09,1.09,0,0,0-1.53,0L15.45,84.77a2.16,2.16,0,0,0,0,3L23.59,96a2.14,2.14,0,0,0,3.05,0L44.2,78.41a1.07,1.07,0,0,0,0-1.52l-1.4-1.4,5.71-5.71A30.2,30.2,0,0,0,88.38,24.56ZM82.27,61.19a21.58,21.58,0,1,1,6.32-15.26A21.44,21.44,0,0,1,82.27,61.19Z"/><path class="cls-2" d="M61.26,60.62c.6-.21,1.2-.41,1.78-.64a10,10,0,0,0,4-2.79,6.78,6.78,0,0,0-3.79-11l-.28-.06a7.69,7.69,0,0,0,.9-.2,5.21,5.21,0,0,0,2.46-1.8A7.47,7.47,0,0,0,68,39.56a6.06,6.06,0,0,0-2.7-5.28,10.91,10.91,0,0,0-4-1.73c-.78-.18-1.58-.3-2.37-.45l.13-.09A15.83,15.83,0,0,1,82.37,42.43a15.94,15.94,0,0,1-11.9,19,14.92,14.92,0,0,1-9.12-.73l-.09-.05"/><path class="cls-2" d="M54.92,44.08H51.47c-.14,0-.18-.06-.18-.19a9,9,0,0,1,.35-2.13A14.36,14.36,0,0,1,54,36.64a1.32,1.32,0,0,0,.16-.25.87.87,0,0,1,.86-.55c.8,0,1.6,0,2.4,0a15.66,15.66,0,0,1,1.94.11,4.58,4.58,0,0,1,3.85,2.75A3.39,3.39,0,0,1,62,42.86a6.14,6.14,0,0,1-2.6,1.07,11.86,11.86,0,0,1-2.52.16c-.67,0-1.33,0-2,0Z"/><path class="cls-2" d="M55,47.64c.61,0,1.23,0,1.85,0a10,10,0,0,1,4.08.58,4.34,4.34,0,0,1,1.83,1.3A3.36,3.36,0,0,1,63,53.37a4.53,4.53,0,0,1-3.3,2.38,10.64,10.64,0,0,1-1.7.15c-.93,0-1.85,0-2.77,0a3.42,3.42,0,0,1-.46,0,.7.7,0,0,1-.55-.33c-.37-.58-.76-1.14-1.09-1.74a15.17,15.17,0,0,1-1.8-5.32c0-.21,0-.43-.05-.64s.05-.17.18-.17H55Z"/></g></svg>